<svg width="25" height="25" viewBox="0 0 25 25" fill="none" xmlns="http://www.w3.org/2000/svg">
<path d="M7.26 22.4768H17.74C20.5 22.4768 21.6 20.7868 21.73 18.7268L22.25 10.4668C22.39 8.30681 20.67 6.47681 18.5 6.47681C17.89 6.47681 17.33 6.12681 17.05 5.58681L16.33 4.13681C15.87 3.22681 14.67 2.47681 13.65 2.47681H11.36C10.33 2.47681 9.13 3.22681 8.67 4.13681L7.95 5.58681C7.67 6.12681 7.11 6.47681 6.5 6.47681C4.33 6.47681 2.61 8.30681 2.75 10.4668L3.27 18.7268C3.39 20.7868 4.5 22.4768 7.26 22.4768Z" stroke="#9616FF" stroke-width="1.5" stroke-linecap="round" stroke-linejoin="round"/>
<path d="M11 8.47681H14" stroke="#9616FF" stroke-width="1.5" stroke-linecap="round" stroke-linejoin="round"/>
<path d="M12.5 18.4768C14.29 18.4768 15.75 17.0168 15.75 15.2268C15.75 13.4368 14.29 11.9768 12.5 11.9768C10.71 11.9768 9.25 13.4368 9.25 15.2268C9.25 17.0168 10.71 18.4768 12.5 18.4768Z" stroke="#9616FF" stroke-width="1.5" stroke-linecap="round" stroke-linejoin="round"/>
</svg>
