<svg width="152" height="79" viewBox="0 0 152 79" fill="none" xmlns="http://www.w3.org/2000/svg">
<path d="M82.4655 22.2958C84.9445 16.6177 88.8664 11.6873 93.8412 7.99461C98.8161 4.30189 104.671 1.97546 110.823 1.24654C116.976 0.517628 123.212 1.41161 128.912 3.83965C134.612 6.26768 139.578 10.1452 143.315 15.0868C147.052 20.0284 149.431 25.8621 150.215 32.0079C150.999 38.1537 150.161 44.3977 147.784 50.1192C145.407 55.8408 141.574 60.8406 136.666 64.6219C131.758 68.4031 125.946 70.834 119.807 71.673" stroke="#9616FF" stroke-width="2"/>
<path d="M2.92188 19.0909H14.7173L22.831 38.8636H23.2401L31.3537 19.0909H43.1491V54H33.8764V33.8182H33.6037L25.831 53.7273H20.2401L12.4673 33.6818H12.1946V54H2.92188V19.0909ZM60.3906 54.4773C57.5497 54.4773 55.1179 53.9148 53.0952 52.7898C51.0724 51.6534 49.5213 50.0739 48.4418 48.0511C47.3622 46.017 46.8224 43.6591 46.8224 40.9773C46.8224 38.2955 47.3622 35.9432 48.4418 33.9205C49.5213 31.8864 51.0724 30.3068 53.0952 29.1818C55.1179 28.0455 57.5497 27.4773 60.3906 27.4773C63.2315 27.4773 65.6634 28.0455 67.6861 29.1818C69.7088 30.3068 71.2599 31.8864 72.3395 33.9205C73.419 35.9432 73.9588 38.2955 73.9588 40.9773C73.9588 43.6591 73.419 46.017 72.3395 48.0511C71.2599 50.0739 69.7088 51.6534 67.6861 52.7898C65.6634 53.9148 63.2315 54.4773 60.3906 54.4773ZM60.4588 47.5227C61.2543 47.5227 61.9418 47.2557 62.5213 46.7216C63.1009 46.1875 63.5497 45.4261 63.8679 44.4375C64.1861 43.4489 64.3452 42.2727 64.3452 40.9091C64.3452 39.5341 64.1861 38.358 63.8679 37.3807C63.5497 36.392 63.1009 35.6307 62.5213 35.0966C61.9418 34.5625 61.2543 34.2955 60.4588 34.2955C59.6179 34.2955 58.8963 34.5625 58.294 35.0966C57.6918 35.6307 57.2315 36.392 56.9134 37.3807C56.5952 38.358 56.4361 39.5341 56.4361 40.9091C56.4361 42.2727 56.5952 43.4489 56.9134 44.4375C57.2315 45.4261 57.6918 46.1875 58.294 46.7216C58.8963 47.2557 59.6179 47.5227 60.4588 47.5227ZM90.3906 54.4773C87.5497 54.4773 85.1179 53.9148 83.0952 52.7898C81.0724 51.6534 79.5213 50.0739 78.4418 48.0511C77.3622 46.017 76.8224 43.6591 76.8224 40.9773C76.8224 38.2955 77.3622 35.9432 78.4418 33.9205C79.5213 31.8864 81.0724 30.3068 83.0952 29.1818C85.1179 28.0455 87.5497 27.4773 90.3906 27.4773C93.2315 27.4773 95.6634 28.0455 97.6861 29.1818C99.7088 30.3068 101.26 31.8864 102.339 33.9205C103.419 35.9432 103.959 38.2955 103.959 40.9773C103.959 43.6591 103.419 46.017 102.339 48.0511C101.26 50.0739 99.7088 51.6534 97.6861 52.7898C95.6634 53.9148 93.2315 54.4773 90.3906 54.4773ZM90.4588 47.5227C91.2543 47.5227 91.9418 47.2557 92.5213 46.7216C93.1009 46.1875 93.5497 45.4261 93.8679 44.4375C94.1861 43.4489 94.3452 42.2727 94.3452 40.9091C94.3452 39.5341 94.1861 38.358 93.8679 37.3807C93.5497 36.392 93.1009 35.6307 92.5213 35.0966C91.9418 34.5625 91.2543 34.2955 90.4588 34.2955C89.6179 34.2955 88.8963 34.5625 88.294 35.0966C87.6918 35.6307 87.2315 36.392 86.9134 37.3807C86.5952 38.358 86.4361 39.5341 86.4361 40.9091C86.4361 42.2727 86.5952 43.4489 86.9134 44.4375C87.2315 45.4261 87.6918 46.1875 88.294 46.7216C88.8963 47.2557 89.6179 47.5227 90.4588 47.5227ZM117.254 54.3409C115.391 54.3409 113.675 53.8523 112.107 52.875C110.55 51.8977 109.3 50.4148 108.357 48.4261C107.425 46.4375 106.959 43.9318 106.959 40.9091C106.959 37.75 107.447 35.1818 108.425 33.2045C109.413 31.2273 110.686 29.7784 112.243 28.858C113.811 27.9375 115.459 27.4773 117.186 27.4773C118.482 27.4773 119.618 27.7045 120.595 28.1591C121.572 28.6023 122.391 29.1989 123.05 29.9489C123.709 30.6875 124.209 31.5 124.55 32.3864H124.686V19.0909H134.095V54H124.754V49.7045H124.55C124.186 50.5909 123.663 51.3864 122.982 52.0909C122.311 52.7841 121.493 53.3352 120.527 53.7443C119.572 54.142 118.482 54.3409 117.254 54.3409ZM120.732 47.1136C121.595 47.1136 122.334 46.8636 122.947 46.3636C123.572 45.8523 124.05 45.1364 124.379 44.2159C124.72 43.2841 124.891 42.1818 124.891 40.9091C124.891 39.6136 124.72 38.5057 124.379 37.5852C124.05 36.6534 123.572 35.9432 122.947 35.4545C122.334 34.9545 121.595 34.7045 120.732 34.7045C119.868 34.7045 119.129 34.9545 118.516 35.4545C117.913 35.9432 117.447 36.6534 117.118 37.5852C116.8 38.5057 116.641 39.6136 116.641 40.9091C116.641 42.2045 116.8 43.3182 117.118 44.25C117.447 45.1705 117.913 45.8807 118.516 46.3807C119.129 46.8693 119.868 47.1136 120.732 47.1136Z" fill="#9616FF"/>
<path d="M39.2617 58.5455H45.1594L49.2163 68.4318H49.4208L53.4776 58.5455H59.3754V76H54.739V65.9091H54.6026L50.7163 75.8636H47.9208L44.0344 65.8409H43.8981V76H39.2617V58.5455ZM65.337 76.2045C64.5018 76.2045 63.7631 76.0682 63.1211 75.7955C62.4847 75.517 61.9847 75.0966 61.6211 74.5341C61.2575 73.9716 61.0756 73.2557 61.0756 72.3864C61.0756 71.6705 61.1978 71.0597 61.4421 70.554C61.6864 70.0426 62.0273 69.625 62.4648 69.3011C62.9023 68.9773 63.4109 68.7301 63.9904 68.5597C64.5756 68.3892 65.2063 68.2784 65.8825 68.2273C66.6154 68.1705 67.2035 68.1023 67.6467 68.0227C68.0955 67.9375 68.4194 67.821 68.6183 67.6733C68.8171 67.5199 68.9165 67.3182 68.9165 67.0682V67.0341C68.9165 66.6932 68.7859 66.4318 68.5245 66.25C68.2631 66.0682 67.9279 65.9773 67.5188 65.9773C67.07 65.9773 66.7035 66.0767 66.4194 66.2756C66.141 66.4687 65.9734 66.767 65.9165 67.1705H61.587C61.6438 66.375 61.8967 65.642 62.3455 64.9716C62.8001 64.2955 63.462 63.7557 64.3313 63.3523C65.2006 62.9432 66.2859 62.7386 67.587 62.7386C68.5245 62.7386 69.3654 62.8494 70.1097 63.071C70.854 63.2869 71.4876 63.5909 72.0103 63.983C72.533 64.3693 72.9308 64.8239 73.2035 65.3466C73.4819 65.8636 73.6211 66.4261 73.6211 67.0341V76H69.2234V74.1591H69.1211C68.8597 74.6477 68.5415 75.0426 68.1665 75.3438C67.7972 75.6449 67.3739 75.8636 66.8967 76C66.4251 76.1364 65.9052 76.2045 65.337 76.2045ZM66.8711 73.2386C67.229 73.2386 67.5643 73.1648 67.8768 73.017C68.195 72.8693 68.4535 72.6562 68.6523 72.3778C68.8512 72.0994 68.9506 71.7614 68.9506 71.3636V70.2727C68.8256 70.3239 68.6921 70.3722 68.5501 70.4176C68.4137 70.4631 68.266 70.5057 68.1069 70.5455C67.9535 70.5852 67.7887 70.6222 67.6126 70.6562C67.4421 70.6903 67.2631 70.7216 67.0756 70.75C66.712 70.8068 66.4137 70.9006 66.1808 71.0312C65.9535 71.1562 65.783 71.3125 65.6694 71.5C65.5614 71.6818 65.5075 71.8864 65.5075 72.1136C65.5075 72.4773 65.6353 72.7557 65.891 72.9489C66.1467 73.142 66.4734 73.2386 66.8711 73.2386ZM83.6758 62.9091V66.3182H75.0508V62.9091H83.6758ZM76.7212 59.7727H81.4258V71.7898C81.4258 71.9716 81.457 72.125 81.5195 72.25C81.582 72.3693 81.6786 72.4602 81.8093 72.5227C81.94 72.5795 82.1076 72.608 82.3121 72.608C82.4542 72.608 82.619 72.5909 82.8065 72.5568C82.9996 72.5227 83.1417 72.4943 83.2326 72.4716L83.9144 75.7784C83.7042 75.8409 83.4031 75.9176 83.011 76.0085C82.6246 76.0994 82.1644 76.1591 81.6303 76.1875C80.5508 76.2443 79.6445 76.1335 78.9116 75.8551C78.1786 75.571 77.6275 75.125 77.2582 74.517C76.8888 73.9091 76.7099 73.1477 76.7212 72.233V59.7727ZM91.7276 76.2386C90.3299 76.2386 89.1254 75.9716 88.114 75.4375C87.1083 74.8977 86.3327 74.125 85.7873 73.1193C85.2475 72.108 84.9776 70.8977 84.9776 69.4886C84.9776 68.1364 85.2504 66.9545 85.7958 65.9432C86.3413 64.9318 87.1112 64.1449 88.1055 63.5824C89.0998 63.0199 90.2731 62.7386 91.6254 62.7386C92.614 62.7386 93.5089 62.892 94.31 63.1989C95.1112 63.5057 95.7958 63.9517 96.364 64.5369C96.9322 65.1165 97.3697 65.821 97.6765 66.6506C97.9833 67.4801 98.1367 68.4148 98.1367 69.4545V70.5455H86.4435V67.9545H93.8072C93.8015 67.5795 93.7049 67.25 93.5174 66.9659C93.3356 66.6761 93.0884 66.4517 92.7759 66.2926C92.4691 66.1278 92.1197 66.0455 91.7276 66.0455C91.3469 66.0455 90.9975 66.1278 90.6793 66.2926C90.3612 66.4517 90.1055 66.6733 89.9123 66.9574C89.7248 67.2415 89.6254 67.5739 89.614 67.9545V70.75C89.614 71.1705 89.7021 71.5455 89.8782 71.875C90.0543 72.2045 90.3072 72.4631 90.6367 72.6506C90.9663 72.8381 91.364 72.9318 91.8299 72.9318C92.1538 72.9318 92.4492 72.8864 92.7163 72.7955C92.989 72.7045 93.2219 72.5739 93.4151 72.4034C93.6083 72.2273 93.7504 72.017 93.8413 71.7727H98.1367C97.989 72.6818 97.6396 73.4716 97.0884 74.142C96.5373 74.8068 95.8072 75.3239 94.8981 75.6932C93.9947 76.0568 92.9379 76.2386 91.7276 76.2386Z" fill="black"/>
</svg>
