<svg width="24" height="25" viewBox="0 0 24 25" fill="none" xmlns="http://www.w3.org/2000/svg">
<path d="M21 6.50439C17.67 6.17439 14.32 6.00439 10.98 6.00439C9 6.00439 7.02 6.10439 5.04 6.30439L3 6.50439" stroke="#FF0000" stroke-width="1.5" stroke-linecap="round" stroke-linejoin="round"/>
<path d="M8.5 5.49441L8.72 4.18441C8.88 3.23441 9 2.52441 10.69 2.52441H13.31C15 2.52441 15.13 3.27441 15.28 4.19441L15.5 5.49441" stroke="#FF0000" stroke-width="1.5" stroke-linecap="round" stroke-linejoin="round"/>
<path d="M18.85 9.66431L18.2 19.7343C18.09 21.3043 18 22.5243 15.21 22.5243H8.79002C6.00002 22.5243 5.91002 21.3043 5.80002 19.7343L5.15002 9.66431" stroke="#FF0000" stroke-width="1.5" stroke-linecap="round" stroke-linejoin="round"/>
<path d="M10.33 17.0244H13.66" stroke="#FF0000" stroke-width="1.5" stroke-linecap="round" stroke-linejoin="round"/>
<path d="M9.5 13.0244H14.5" stroke="#FF0000" stroke-width="1.5" stroke-linecap="round" stroke-linejoin="round"/>
</svg>
